<?xml version="1.0" encoding="utf-8"?>
<svg version="1.1" xmlns="http://www.w3.org/2000/svg" xmlns:xlink="http://www.w3.org/1999/xlink" x="0px" y="0px"
	 viewBox="0 0 100 100" style="enable-background:new 0 0 100 100;" xml:space="preserve">
<style>
	* { fill: #627500; }
</style>
<g>
	<path d="M92.7,45.1L88,36.5c-1.6-2.9-4.6-4.7-7.9-4.7H69.2v-3.3c0-3.9-3.1-7-7-7H21.3c-3.9,0-7,3.1-7,7V31H5.4
		c-1.6-0.1-2.9,1.2-3,2.8c0,0.1,0,0.1,0,0.2c0,1.7,1.3,3,3,3h23.3c1.6-0.1,2.9-1.4,3-3c0-1.7-1.3-3-3-3h-8.4v-2.5c0-0.6,0.4-1,1-1
		h40.9c0.5,0,1,0.5,1,1v36.6H40.9c-1.7-5.4-7.4-8.4-12.7-6.8c-3.2,1-5.8,3.5-6.8,6.8h-0.1c-0.6,0-1-0.4-1-1v-8.6h8.4
		c1.6-0.1,2.9-1.4,3-3c0-1.7-1.3-3-3-3H5.4c-1.6-0.1-2.9,1.2-3,2.8c0,0.1,0,0.1,0,0.2c0,1.7,1.3,3,3,3h8.9v8.6c0,3.9,3.1,7,7,7l0,0
		c1.3,4.4,5.3,7.4,9.9,7.4c4.6,0,8.6-3,9.8-7.4h29.9c1.6,5.4,7.2,8.5,12.6,7c3.4-1,6-3.6,7-7h1.1c3.3,0,6-2.7,6-6V51
		C97.6,48.1,95.6,45.6,92.7,45.1z M80.1,37.8c1.1,0,2.1,0.6,2.6,1.5l3.1,5.7H69.2v-7.2H80.1z M31.2,72.5c-2.4,0.1-4.3-1.8-4.4-4.2
		c-0.1-2.4,1.8-4.3,4.2-4.4c2.4-0.1,4.3,1.8,4.4,4.2c0,0.1,0,0.1,0,0.2C35.4,70.6,33.5,72.5,31.2,72.5z M80.7,72.5
		c-2.4,0.1-4.3-1.8-4.4-4.2s1.8-4.3,4.2-4.4c2.4-0.1,4.3,1.8,4.4,4.2c0,0.1,0,0.1,0,0.2C84.9,70.6,83,72.5,80.7,72.5z M91.6,65.1
		h-1.2c-1.7-5.4-7.5-8.3-12.9-6.5c-3.1,1-5.5,3.4-6.5,6.5h-1.8V51h22.4V65.1z"/>
	<path d="M34.8,46.2c1.6,0.1,2.9-1.2,3-2.8c0-0.1,0-0.1,0-0.2c0-1.7-1.3-3-3-3H11.5c-1.6,0.1-2.9,1.4-3,3c0,1.7,1.3,3,3,3H34.8z"/>
</g>
</svg>