<?xml version="1.0" encoding="utf-8"?>
<svg version="1.1" xmlns="http://www.w3.org/2000/svg" xmlns:xlink="http://www.w3.org/1999/xlink" x="0px" y="0px"
	 viewBox="0 0 100 100" style="enable-background:new 0 0 100 100;" xml:space="preserve">
<style>
	* { fill: #627500; }
</style>
<g>
	<path d="M89.1,45.7L89.1,45.7c-3.3-1.6-7-0.9-9.5,1.5L62.8,63.7c-0.3-0.7-0.7-1.4-1.1-2c-1.6-2.1-4-3.2-6.6-3.2H23.4
		c-3.9,0-7.8,1.5-10.7,4.1L7,67.8c-1,0.9-1.2,2.5-0.2,3.5c0.9,1,2.5,1.2,3.5,0.2c0,0,0,0,0.1-0.1l5.8-5.2c2-1.8,4.6-2.8,7.4-2.8H55
		c1.9,0,3.4,1.5,3.4,3.4c0,1.9-1.5,3.4-3.4,3.4H33.5c-1.4,0-2.5,1.1-2.5,2.5s1.1,2.5,2.5,2.5H55c2.8,0,5.4-1.4,7-3.8l21.1-20.7
		c1-1,2.5-1.3,3.8-0.7l0.1,0.1c1.6,0.8,2.3,2.7,1.6,4.3c-0.2,0.3-0.4,0.7-0.6,0.9L61.7,81.7c-3.2,3.2-7.5,5-12.1,5H31.1
		c-3.3,0-6.4,1.5-8.3,4.2l-2.9,4c-0.8,1.1-0.6,2.7,0.5,3.5s2.7,0.6,3.5-0.5l2.9-4c1-1.4,2.6-2.2,4.3-2.2h18.6
		c5.9,0,11.5-2.3,15.6-6.5L91.5,59c3.2-3.2,3.2-8.5,0-11.7C90.8,46.6,90,46.1,89.1,45.7z"/>
	<path d="M48.3,51.2c1.4,0,2.5-1.1,2.5-2.5V47c4.1-0.8,7-4.4,7-8.6c0-2.5-1.2-7-8.9-8.8c-5-1.1-5-3.2-5-3.9c0-2.7,2.3-3.9,4.5-3.9
		c1.8,0,3.4,1.1,4.1,2.7c0.3,1.3,1.7,2.2,3,1.9c1.3-0.3,2.2-1.7,1.9-3c-0.1-0.3-0.2-0.5-0.3-0.8c-1.1-2.7-3.4-4.7-6.2-5.5v-1.8
		c0-1.4-1.1-2.5-2.5-2.5s-2.5,1.1-2.5,2.5v1.7c-4.1,0.9-6.9,4.4-6.9,8.6c0,2.5,1.2,7,8.9,8.8c5,1.1,5,3.2,5,3.9
		c0,2.7-2.3,3.9-4.5,3.9c-1.8,0-3.4-1.1-4.1-2.7c-0.5-1.3-1.9-1.9-3.2-1.4c-1.3,0.5-1.9,1.9-1.4,3.2c0,0,0,0.1,0.1,0.1
		c1.1,2.7,3.4,4.7,6.2,5.5v1.8C45.8,50.1,46.9,51.2,48.3,51.2C48.3,51.2,48.3,51.2,48.3,51.2z"/>
	<path d="M16.8,31.4c-0.2,6,1.4,11.8,4.4,16.9c0.5,0.8,1,1.7,1.6,2.4c0.3,0.4,0.6,0.8,0.9,1.1l0.6,0.8c0.9,1,2.5,1.2,3.5,0.3
		c1-0.9,1.2-2.5,0.3-3.5l-0.5-0.6c-0.2-0.3-0.5-0.6-0.7-0.9c-0.5-0.7-0.9-1.3-1.4-2C18,33.4,22,17.1,34.6,9.6s28.8-3.4,36.3,9.1
		c2,3.4,3.3,7.1,3.6,11.1c0.1,1.1,0.1,2.2,0.1,3.3c0,0.8-0.1,1.6-0.2,2.4c-0.1,0.6-0.2,1.2-0.3,1.7c-0.1,0.8-0.3,1.6-0.5,2.3
		c-0.4,1.3,0.4,2.7,1.7,3.1c1.3,0.4,2.7-0.4,3.1-1.7c0.2-0.9,0.5-1.8,0.6-2.8c0.1-0.7,0.2-1.4,0.3-2c0.1-0.9,0.2-1.9,0.2-2.8
		c0-1.3,0-2.6-0.1-3.9c-1.8-17.3-17.3-29.8-34.5-28C29.3,2.9,17.3,15.8,16.8,31.4z"/>
</g>
</svg>