<svg xmlns:dc="http://purl.org/dc/elements/1.1/" xmlns:cc="http://creativecommons.org/ns#" xmlns:rdf="http://www.w3.org/1999/02/22-rdf-syntax-ns#" xmlns:svg="http://www.w3.org/2000/svg" xmlns="http://www.w3.org/2000/svg" xmlns:sodipodi="http://sodipodi.sourceforge.net/DTD/sodipodi-0.dtd" xmlns:inkscape="http://www.inkscape.org/namespaces/inkscape" version="1.1" x="0px" y="0px" viewBox="0 0 100 125"><g transform="translate(0,-952.36218)"><path d="m 14,970.36216 c -2.7614,0 -5.0000001,2.2385 -5.0000001,5 0,2.76149 2.2386001,5 5.0000001,5 l 72,0 c 2.7614,0 5,-2.23851 5,-5 0,-2.7615 -2.2386,-5 -5,-5 z m 0,27 c -2.7614,0 -5.0000001,2.23845 -5.0000001,4.99994 0,2.7615 2.2386001,5 5.0000001,5 l 72,0 c 2.7614,0 5,-2.2385 5,-5 0,-2.76149 -2.2386,-4.99994 -5,-4.99994 z m 0,27.00004 c -2.7614,0 -5.0000001,2.2385 -5.0000001,5 0,2.7615 2.2386001,5 5.0000001,5 l 72,0 c 2.7614,0 5,-2.2385 5,-5 0,-2.7615 -2.2386,-5 -5,-5 z" style="text-indent:0;text-transform:none;direction:ltr;block-progression:tb;baseline-shift:baseline;color:#000000;enable-background:accumulate;" fill="#000000" fill-opacity="1" stroke="none" marker="none" visibility="visible" display="inline" overflow="visible"/></g><text x="0" y="115" fill="#000000" font-size="5px" font-weight="bold" font-family="'Helvetica Neue', Helvetica, Arial-Unicode, Arial, Sans-serif">Created by Numero Uno</text><text x="0" y="120" fill="#000000" font-size="5px" font-weight="bold" font-family="'Helvetica Neue', Helvetica, Arial-Unicode, Arial, Sans-serif">from the Noun Project</text></svg>