<svg xmlns="http://www.w3.org/2000/svg" version="1.1" x="0px" y="0px" viewBox="0 0 100 125">
<g transform="translate(0,-952.36218)">
	<path style="text-indent:0;text-transform:none;direction:ltr;block-progression:tb;baseline-shift:baseline;color:#000000;enable-background:accumulate;" d="m 41.994,964.36217 c -16.5178,0 -29.994,13.4761 -29.994,29.99399 0,16.51774 13.4762,29.99404 29.994,29.99404 6.8234,0 13.1341,-2.2912 18.1838,-6.155 l 20.9645,20.9958 c 1.5616,1.5616 4.1246,1.5617 5.6865,0 1.5616,-1.5618 1.5616,-4.0935 0,-5.6552 L 65.833,1012.54 c 3.8622,-5.0492 6.155,-11.3619 6.155,-18.18384 0,-16.51789 -13.4763,-29.99399 -29.994,-29.99399 z m 0,7.99839 c 12.1949,0 21.9956,9.80044 21.9956,21.9956 0,12.19494 -9.8007,21.99564 -21.9956,21.99564 -12.1951,0 -21.9956,-9.8007 -21.9956,-21.99564 0,-12.19516 9.8005,-21.9956 21.9956,-21.9956 z" fill="#000000" fill-opacity="1" stroke="none" marker="none" visibility="visible" display="inline" overflow="visible"/>
</g>
</svg>