<?xml version="1.0" encoding="utf-8"?>
<svg version="1.1" xmlns="http://www.w3.org/2000/svg" xmlns:xlink="http://www.w3.org/1999/xlink" x="0px" y="0px"
	 viewBox="0 0 32 32" style="enable-background:new 0 0 32 32;" xml:space="preserve">
<style>
	* { fill: #627500; }
</style>
<g>
	<path d="M27,14.9h2c0.5,0,1-0.4,1-1V6.5c0-0.6-0.5-1-1-1h-7H10H3c-0.5,0-1,0.4-1,1v7.4c0,0.6,0.5,1,1,1h2c0.5,0,1,0.5,1,1.1
		c0,0.3-0.1,0.6-0.3,0.8C5.5,17,5.3,17.1,5,17.1H3c-0.5,0-1,0.5-1,1v7.4c0,0.5,0.5,1,1,1h7h12h7c0.5,0,1-0.5,1-1v-7.4
		c0-0.5-0.5-1-1-1h-2c-0.3,0-0.5-0.1-0.7-0.3C26.1,16.6,26,16.3,26,16C26,15.4,26.5,14.9,27,14.9z M4,19.1h1c0.8,0,1.6-0.3,2.1-0.9
		C7.7,17.6,8,16.8,8,16c0-1.7-1.3-3.1-3-3.1H4V7.5h5v17H4V19.1z M11,24.5v-17h10v17H11z M24.9,18.2c0.6,0.6,1.3,1,2.1,1h1v5.4h-5
		v-17h5v5.4h-1c-1.6,0-3,1.4-3,3.1C24,16.8,24.3,17.6,24.9,18.2z M15,13.5h-2v-2h2V13.5z M17,17.5h2v2h-2V17.5z M18.9,11.9l-4,8
		l-1.8-0.9l4-8L18.9,11.9z"/>
</g>
</svg>