<?xml version="1.0" encoding="utf-8"?>
<svg version="1.1" xmlns="http://www.w3.org/2000/svg" xmlns:xlink="http://www.w3.org/1999/xlink" x="0px" y="0px"
	 viewBox="0 0 32 32" style="enable-background:new 0 0 32 32;" xml:space="preserve">
<style>
	* { fill: #627500; }
</style>
<path d="M28,7.8h-5.9c1-1.1,1.7-2.6,1.7-4.2c0-0.6-0.4-1-1-1h-1.5c-2.2,0-4.1,1.1-5.2,2.8c-1.1-1.7-3-2.8-5.2-2.8H9.2
	c-0.6,0-1,0.4-1,1c0,1.6,0.6,3.1,1.7,4.2H4c-1.7,0-3,1.3-3,3v1.5c0,1.7,1.3,3,3,3h1v11.2c0,1.7,1.3,3,3,3h16c1.7,0,3-1.3,3-3V15.2h1
	c1.7,0,3-1.3,3-3v-1.5C31,9.1,29.7,7.8,28,7.8z M20,9.8v3.5h-8V9.8H20z M21.2,4.6h0.4c-0.5,1.8-2.1,3.2-4.1,3.2h-0.4
	C17.6,6,19.2,4.6,21.2,4.6z M10.8,4.6c2,0,3.6,1.4,4.1,3.2h-0.4c-2,0-3.6-1.4-4.1-3.2H10.8z M3,12.2v-1.5c0-0.6,0.4-1,1-1h6v3.5H4
	C3.4,13.2,3,12.8,3,12.2z M7,26.4V15.2h5v12.2H8C7.4,27.4,7,27,7,26.4z M14,27.4V15.2H18v12.2H14z M25,26.4c0,0.6-0.4,1-1,1h-4V15.2
	h5V26.4z M29,12.2c0,0.6-0.4,1-1,1h-6V9.8h6c0.6,0,1,0.4,1,1V12.2z"/>
</svg>