<svg xmlns="http://www.w3.org/2000/svg" xmlns:xlink="http://www.w3.org/1999/xlink" xml:space="preserve" version="1.1" style="shape-rendering:geometricPrecision;text-rendering:geometricPrecision;image-rendering:optimizeQuality;" viewBox="0 0 382 467.5" x="0px" y="0px" fill-rule="evenodd" clip-rule="evenodd">
<defs>
  <style type="text/css">
    .fil0 {fill:black;fill-rule:nonzero}
  </style>
</defs>
<g>
  <path class="fil0" d="M11 0l59 14c4,0 6,3 7,6l9 44 289 27c5,1 9,6 7,11l-45 138c-1,4 -4,6 -8,6l-205 0 4 21 198 0c11,0 11,20 0,20l-207 0c-4,0 -8,-2 -9,-7l-51 -248 -52 -12c-12,-3 -7,-22 4,-20zm79 84l29 142 202 0 38 -116 -269 -26z"/><path class="fil0" d="M163 296c21,0 39,18 39,39 0,22 -18,39 -39,39 -21,0 -39,-17 -39,-39 0,-21 18,-39 39,-39zm0 20c-10,0 -19,9 -19,19 0,11 8,19 19,19 10,0 19,-8 19,-19 0,-10 -9,-19 -19,-19z"/>
  <path class="fil0" d="M284 296c21,0 39,18 39,39 0,22 -18,39 -39,39 -21,0 -39,-17 -39,-39 0,-21 18,-39 39,-39zm0 20c-10,0 -19,9 -19,19 0,11 9,19 19,19 10,0 19,-8 19,-19 0,-10 -9,-19 -19,-19z"/>
</g>
</svg>