<?xml version="1.0" encoding="utf-8"?>
<svg version="1.1" xmlns="http://www.w3.org/2000/svg" xmlns:xlink="http://www.w3.org/1999/xlink" x="0px" y="0px" width="60px" height="60px" viewBox="0 0 60 60" enable-background="new 0 0 60 60" xml:space="preserve">
<g>
	<g>
		<path fill="#FFFFFF" d="M21.093,17.53c0.474,0.172,0.948,0.388,1.422,0.56l7.283-2.327l13.962-4.438l-1.336-0.56l-12.626,4.007
			L21.093,17.53z"></path>
		<path fill="#FFFFFF" d="M24.066,18.65c0.646,0.215,1.25,0.388,1.724,0.431l4.007-1.25l16.634-5.301l-1.293-0.56l-15.341,4.869
			L24.066,18.65z"></path>
		<path fill="#FFFFFF" d="M49.016,13.135c-0.215-0.086-0.517-0.129-0.733-0.043l-18.487,5.861l-3.275,1.078
			c-0.862,0.259-3.922-0.819-6.248-1.896c-2.327-1.12-3.49-1.939-3.448-2.327l12.971-4.18l8.446-2.715
			c0.302-0.129,0.302-0.431,0.215-0.689c-0.086-0.302-0.345-0.431-0.603-0.388l-8.058,2.585l-13.832,4.438
			c-0.345,0.129-0.646,0.345-0.776,0.603c-0.086,0.086-0.129,0.172-0.129,0.259v8.575c-0.646,0.172-1.293,0.388-1.896,0.689
			c-2.37,1.077-4.525,3.318-4.525,7.369c0,3.922,2.155,6.292,4.525,7.627c0.604,0.345,1.25,0.646,1.896,0.862v5.904
			c0,0.258,0,0.819,2.887,2.198c0.086,0.043,7.067,3.835,9.179,3.146l2.672-0.862l19.09-6.033c0.302-0.086,0.474-0.302,0.474-0.56
			V13.609C49.361,13.436,49.232,13.264,49.016,13.135z M15.06,38.042c-0.646-0.302-1.336-0.689-1.896-1.206
			c-1.077-0.948-1.896-2.37-1.896-4.482c0-2.198,0.819-3.533,1.896-4.352c0.604-0.474,1.25-0.819,1.896-0.991V38.042z"/>
		<path fill="#FFFFFF" d="M18.593,16.237v0.043c0.345,0.215,0.733,0.388,1.163,0.603l10.04-3.189l11.247-3.534l-1.336-0.603
			l-9.911,3.146L18.593,16.237z"></path>
	</g>
	<g>
		<path fill="#799900" d="M32.102,44.325c0,0.227-0.08,0.416-0.24,0.568s-0.381,0.229-0.662,0.229c-0.282,0-0.502-0.076-0.663-0.229
			s-0.24-0.342-0.24-0.568s0.08-0.416,0.24-0.568s0.381-0.229,0.663-0.229c0.281,0,0.502,0.076,0.662,0.229
			S32.102,44.099,32.102,44.325z"></path>
		<path fill="#799900" d="M38.137,39.608v0.75c0.504-0.363,0.9-0.605,1.191-0.727s0.564-0.182,0.818-0.182
			c0.391,0,0.77,0.145,1.137,0.434c0.25,0.195,0.375,0.395,0.375,0.598c0,0.172-0.061,0.317-0.18,0.437s-0.262,0.179-0.43,0.179
			c-0.148,0-0.305-0.074-0.469-0.223s-0.311-0.223-0.439-0.223c-0.168,0-0.42,0.105-0.754,0.316s-0.75,0.527-1.25,0.949v1.811h1.711
			c0.289,0,0.494,0.056,0.617,0.167s0.186,0.257,0.186,0.437c0,0.176-0.063,0.319-0.186,0.431s-0.328,0.167-0.617,0.167h-3.627
			c-0.289,0-0.496-0.056-0.619-0.167s-0.184-0.257-0.184-0.437c0-0.176,0.061-0.319,0.184-0.431s0.33-0.167,0.619-0.167h0.715V40.81
			h-0.434c-0.289,0-0.496-0.056-0.619-0.167s-0.184-0.257-0.184-0.437c0-0.176,0.061-0.319,0.184-0.431s0.33-0.167,0.619-0.167
			H38.137z"></path>
		<path fill="#799900" d="M48.707,42.368c0,0.461-0.129,0.907-0.385,1.339s-0.637,0.775-1.143,1.031s-1.033,0.384-1.584,0.384
			c-0.547,0-1.07-0.126-1.57-0.378s-0.881-0.595-1.143-1.028s-0.393-0.887-0.393-1.359c0-0.48,0.133-0.952,0.398-1.415
			s0.646-0.827,1.145-1.093s1.02-0.398,1.563-0.398c0.547,0,1.072,0.136,1.578,0.407s0.889,0.637,1.146,1.096
			S48.707,41.884,48.707,42.368z M47.506,42.374c0-0.387-0.139-0.742-0.416-1.066c-0.379-0.438-0.877-0.656-1.494-0.656
			c-0.543,0-0.996,0.174-1.359,0.521s-0.545,0.75-0.545,1.207c0,0.375,0.184,0.726,0.551,1.052s0.818,0.489,1.354,0.489
			c0.539,0,0.992-0.163,1.359-0.489S47.506,42.753,47.506,42.374z"></path>
	</g>
</g>
</svg>